# xmcd
#
# Track frame offsets: 
#        150
#        20156
#        36313
#        53331
#        73735
#        90109
#        109667
#        126450
#        144128
#        161723
#        180884
#        203603
#
# Disc length: 3096 seconds
#
# Revision: 2
# Processed by: cddbd v1.5.2PL0 Copyright (c) Steve Scherf et al.
# Submitted via: ExactAudioCopy v0.90b4
#
DISCID=960c160c
DTITLE=Ash - Twilight Of The Innocents
DYEAR=2007
DGENRE=Alt. Rock
TTITLE0=I Started A Fire
TTITLE1=You Can't Have It All
TTITLE2=Blacklisted
TTITLE3=Polaris
TTITLE4=Palace Of Excess
TTITLE5=End Of The World
TTITLE6=Ritual
TTITLE7=Shadows
TTITLE8=Princess Six
TTITLE9=Dark And Stormy
TTITLE10=Shattered Glass
TTITLE11=Twilight Of The Innocents
EXTD=
EXTT0=
EXTT1=
EXTT2=
EXTT3=
EXTT4=
EXTT5=
EXTT6=
EXTT7=
EXTT8=
EXTT9=
EXTT10=
EXTT11=
PLAYORDER=
